<svg xmlns="http://www.w3.org/2000/svg" xmlns:xlink="http://www.w3.org/1999/xlink" viewBox="0 0 135.3 15.69"><defs><style>.cls-1{fill:none;}.cls-2{clip-path:url(#clip-path);}.cls-3{fill:#d6edf7;}</style><clipPath id="clip-path" transform="translate(0)"><rect class="cls-1" width="135.3" height="15.69"/></clipPath></defs><title>darksky1</title><g id="Layer_2" data-name="Layer 2"><g id="Layer_1-2" data-name="Layer 1"><g class="cls-2"><path class="cls-3" d="M131,4.36c1.51,0,2.48,1.07,2.53,3h-5.15c.14-1.92,1.15-3,2.62-3m0-1a4.16,4.16,0,0,0-4.49,4.5c0,2.66,1.74,4.41,4.82,4.41a4.38,4.38,0,0,0,4-1.9l-1.18-.67a3.07,3.07,0,0,1-2.76,1.61,2.86,2.86,0,0,1-3-3.11h6.89c.2-3-1.39-4.84-4.23-4.84m-8.35,8.74L126,3.57H124.1l-2.35,7.3-2.54-7.3h-1.88l3.47,8.57Zm-6.23-8.57h-1.81v8.57h1.81ZM113,11.09a2.16,2.16,0,0,1-1,.2c-.89,0-1.17-.53-1.17-2V4.59H113v-1h-2.21V.24H109V3.57H107.1v1H109V9.38c0,1.46.27,2.93,2.6,2.93a4.51,4.51,0,0,0,1.55-.23Zm-8.22-2.18A2.81,2.81,0,0,1,102,11.29a1.62,1.62,0,0,1-1.77-1.68c0-1.15.92-1.49,1.94-1.64l2.61-.36Zm-1.9-5.51a3.84,3.84,0,0,0-3.69,1.93l1.22.73a2.26,2.26,0,0,1,2.32-1.64c1.26,0,2,.59,2,1.94v.39l-2.7.32c-2.38.27-3.4,1.09-3.4,2.63s1.08,2.61,3.09,2.61a2.91,2.91,0,0,0,3.07-2.21v2h1.55V6.46c0-2-1.24-3.06-3.51-3.06M97,3.57h-1.8v8.57H97Zm-3.42,7.52a2.18,2.18,0,0,1-1,.2c-.89,0-1.16-.53-1.16-2V4.59h2.21v-1H91.32V.24H89.51V3.57H87.64v1h1.87V9.38c0,1.46.26,2.93,2.6,2.93a4.51,4.51,0,0,0,1.55-.23ZM86.36,3.57h-1.8v8.57h1.8Zm-7.1-.17a2.64,2.64,0,0,0-2.83,2V3.57H74.61v8.57h1.81V7.29c0-1.59.79-2.87,2.4-2.87,1.25,0,1.76.77,1.76,2.69v5h1.8V7c0-2.16-.67-3.62-3.12-3.62M72.34.24h-1.8v11.9h1.8ZM60,3.57H58.11L61.71,12c-.6,2-1.1,2.66-2.1,2.66a2.8,2.8,0,0,1-1.1-.14l-.16,1a6.86,6.86,0,0,0,1.38.15A3.23,3.23,0,0,0,63,13.39l3.78-9.82H64.9l-2.35,7.12Zm-3.83,8.57H58L54.27,6.78l3.38-3.21H56.11L51.75,7.64V.24H49.94v11.9h1.81V9.22l1.39-1.34Zm-9-8.47.91-1C47.61,1.1,45.92.07,43.76.07c-2.87,0-4.52,1.47-4.52,3.25,0,2.32,2.25,2.94,4.11,3.41s3.06.78,3.06,2.39c0,1.15-.84,2.17-2.71,2.17a3.93,3.93,0,0,1-3.93-3L38.58,9.38a5.24,5.24,0,0,0,5.05,2.93c2.91,0,4.59-1.51,4.59-3.49,0-2.33-2.13-2.88-4.31-3.41C42.19,5,41.05,4.6,41.05,3.2s1.06-2.11,2.64-2.11a3.62,3.62,0,0,1,3.48,2.58M33.5,12.14h1.85L31.58,6.78,35,3.57H33.46l-4.4,4.07V.24H27.25v11.9h1.81V9.22l1.38-1.34Zm-8-8.74a2.84,2.84,0,0,0-2.89,1.95V3.57h-1.8v8.57h1.8V6.94a2.58,2.58,0,0,1,3-2.26l.5.06V3.41ZM17.31,8.91a2.81,2.81,0,0,1-2.78,2.38,1.62,1.62,0,0,1-1.77-1.68c0-1.15.93-1.49,2-1.64l2.6-.36ZM15.41,3.4a3.81,3.81,0,0,0-3.68,1.93l1.21.73a2.26,2.26,0,0,1,2.33-1.64,1.78,1.78,0,0,1,2,1.94v.39l-2.7.32c-2.38.27-3.4,1.09-3.4,2.63s1.08,2.61,3.1,2.61a2.9,2.9,0,0,0,3.06-2.21v2h1.55V6.46c0-2-1.24-3.06-3.51-3.06M4,11.12H1.81V1.26h2c2.75,0,4.6,1.83,4.6,4.82s-1.73,5-4.4,5M4.07.24H0v11.9H4.5c3.51,0,5.7-2.42,5.7-6.06S7.84.24,4.07.24Z" transform="translate(0)"/><path class="cls-3" d="M85.46,2.28a1.14,1.14,0,1,0-1.14-1.14,1.14,1.14,0,0,0,1.14,1.14" transform="translate(0)"/><path class="cls-3" d="M96.07,2.28a1.14,1.14,0,1,0-1.14-1.14,1.14,1.14,0,0,0,1.14,1.14" transform="translate(0)"/><path class="cls-3" d="M115.49,2.28a1.14,1.14,0,1,0-1.14-1.14,1.14,1.14,0,0,0,1.14,1.14" transform="translate(0)"/></g></g></g></svg>